<svg width="280" height="187" fill="none" xmlns="http://www.w3.org/2000/svg"><path d="M175.331 41.44c25.248 16.108 45.446 55.922 45.446 87.53L44.324 180.636H29.456C13.185 180.636 0 166.352 0 148.725v-7.902C.28 52.686 88.928-13.569 175.331 41.441Z" fill="#9F663F"/><path d="M17.231 142.646c1.683-5.166 1.964-10.333.842-15.804-1.964-9.725-5.61-19.147-3.367-27.96 3.086-11.854 15.99-19.147 21.882-29.48 5.891-10.334 5.89-26.138 14.307-34.344 8.135-8.206 22.723-7.294 32.821-13.068 9.82-5.47 17.394-18.843 28.615-21.58 10.66-2.431 22.442 6.687 34.225 7.294 10.66.912 23.564-6.686 34.785-2.735 10.099 3.647 16.551 17.628 26.65 24.01 1.403.912-165.512 151.048-165.512 151.048-18.515.913-31.139-18.842-25.248-37.382Z" fill="#AFBC0F"/><path d="M112.001 10.389 112 17.307c0 1.913 1.567 3.464 3.5 3.465l6.999.004c1.933.001 3.5-1.549 3.5-3.461l.001-6.918c0-1.913-1.567-3.464-3.5-3.465l-6.999-.004c-1.933-.001-3.5 1.548-3.5 3.461Zm-21 27.704v6.918c0 1.912 1.566 3.463 3.499 3.465l6.999.004c1.933 0 3.5-1.549 3.5-3.461L105 38.1c0-1.912-1.567-3.463-3.5-3.464l-6.999-.004c-1.933-.001-3.5 1.548-3.5 3.46Zm70-20.778L161 24.233c0 1.912 1.567 3.464 3.5 3.465l6.999.004c1.933 0 3.5-1.549 3.5-3.461l.001-6.918c0-1.913-1.567-3.464-3.5-3.465l-6.999-.004c-1.933-.001-3.5 1.548-3.5 3.46Zm-105 27.704v6.918c0 1.912 1.566 3.464 3.499 3.465l6.999.004c1.933 0 3.5-1.549 3.5-3.462v-6.918c.001-1.912-1.566-3.463-3.499-3.464l-6.999-.004c-1.933-.002-3.5 1.548-3.5 3.46Zm-7 34.629v6.919c0 1.912 1.566 3.463 3.499 3.464l6.999.004c1.933.002 3.5-1.548 3.5-3.46v-6.919c.001-1.912-1.566-3.464-3.499-3.465l-6.999-.004c-1.933 0-3.5 1.549-3.5 3.462Z" fill="#DB4F00"/><path d="M166.914 21.381c61.716-1.52 112.212 54.706 112.212 121.569v5.774c0 17.628-13.186 31.912-29.456 31.912l-220.496.304c16.27 0 29.456-14.285 29.456-31.912v-7.902c0-65.343 48.251-118.53 108.284-119.745Z" fill="#FFC552"/><path d="M189 155.833c0 5.738 3.134 10.389 7 10.389s7-4.651 7-10.389c0-5.737-3.134-10.389-7-10.389s-7 4.652-7 10.389Zm56 0c0 5.738 3.134 10.389 7 10.389s7-4.651 7-10.389c0-5.737-3.134-10.389-7-10.389s-7 4.652-7 10.389Z" fill="#FFB013"/><path d="M217 100.426c0 5.737 3.134 10.389 7 10.389s7-4.652 7-10.389c0-5.737-3.134-10.389-7-10.389s-7 4.651-7 10.389Zm-56 0c0 5.737 3.134 10.389 7 10.389s7-4.652 7-10.389c0-5.737-3.134-10.389-7-10.389s-7 4.651-7 10.389Zm-56 0c0 5.737 3.134 10.389 7 10.389s7-4.652 7-10.389c0-5.737-3.134-10.389-7-10.389s-7 4.651-7 10.389Z" fill="#FFB92F"/><path d="M133 51.944c0 5.738 3.134 10.39 7 10.39s7-4.652 7-10.39c0-5.737-3.134-10.388-7-10.388s-7 4.65-7 10.388Zm56 0c0 5.738 3.134 10.39 7 10.39s7-4.652 7-10.39c0-5.737-3.134-10.388-7-10.388s-7 4.65-7 10.388Z" fill="#FFBC37"/><path d="M77 155.833c0 5.738 3.134 10.389 7 10.389s7-4.651 7-10.389c0-5.737-3.134-10.389-7-10.389s-7 4.652-7 10.389Zm56 0c0 5.738 3.134 10.389 7 10.389s7-4.651 7-10.389c0-5.737-3.134-10.389-7-10.389s-7 4.652-7 10.389Z" fill="#FFB013"/></svg>